<svg width="40" height="40" viewBox="0 0 40 40" fill="none" xmlns="http://www.w3.org/2000/svg">
<path d="M35.6217 27.8C34.7592 29.7156 34.3435 30.5719 33.2342 32.2625C31.681 34.625 29.4904 37.575 26.7842 37.5938C24.3748 37.6156 23.7529 36.0219 20.481 36.05C17.2123 36.0656 16.531 37.625 14.1185 37.6C11.4092 37.575 9.33729 34.9188 7.78416 32.5594C3.44041 25.9438 2.98104 18.1875 5.66541 14.0625C7.56541 11.1375 10.5685 9.41875 13.3904 9.41875C16.2654 9.41875 18.0717 10.9969 20.4467 10.9969C22.7529 10.9969 24.156 9.41563 27.481 9.41563C29.9935 9.41563 32.6498 10.7844 34.5498 13.1469C28.3373 16.5531 29.3467 25.425 35.6217 27.8ZM24.956 6.775C26.1654 5.22188 27.0842 3.03125 26.7498 0.800003C24.7779 0.934378 22.4717 2.19375 21.1248 3.825C19.9029 5.3125 18.8904 7.51875 19.2842 9.65313C21.4373 9.72188 23.6654 8.4375 24.956 6.775Z" fill="currentColor"/>
</svg>
