<svg width="39" height="39" viewBox="0 0 39 39" fill="none" xmlns="http://www.w3.org/2000/svg">
<path d="M19.5 4.0625C15.4057 4.0625 11.4791 5.68895 8.58404 8.58404C5.68895 11.4791 4.0625 15.4057 4.0625 19.5C4.0625 23.5943 5.68895 27.5209 8.58404 30.416C11.4791 33.3111 15.4057 34.9375 19.5 34.9375C23.5943 34.9375 27.5209 33.3111 30.416 30.416C33.3111 27.5209 34.9375 23.5943 34.9375 19.5C34.9375 15.4057 33.3111 11.4791 30.416 8.58404C27.5209 5.68895 23.5943 4.0625 19.5 4.0625Z" fill="#FFF"/>
<path d="M21.5895 23.5918H25.5846L26.2118 19.5333H21.5887V17.3152C21.5887 15.6293 22.1396 14.1343 23.7167 14.1343H26.2508V10.5926C25.8056 10.5324 24.8639 10.4008 23.0845 10.4008C19.369 10.4008 17.1907 12.363 17.1907 16.8334V19.5333H13.3711V23.5918H17.1907V34.7466C17.9471 34.8603 18.7133 34.9375 19.4998 34.9375C20.2107 34.9375 20.9046 34.8725 21.5895 34.7799V23.5918Z" fill="black" />
</svg>
