<svg width="40" height="40" viewBox="0 0 40 40" fill="none" xmlns="http://www.w3.org/2000/svg">
<path d="M36.3432 16.7358H35.0007V16.6667H20.0007V23.3333H29.4198C28.0457 27.2142 24.3532 30 20.0007 30C14.4782 30 10.0007 25.5225 10.0007 20C10.0007 14.4775 14.4782 9.99999 20.0007 9.99999C22.5498 9.99999 24.869 10.9617 26.6348 12.5325L31.349 7.81833C28.3723 5.04416 24.3906 3.33333 20.0007 3.33333C10.7965 3.33333 3.33398 10.7958 3.33398 20C3.33398 29.2042 10.7965 36.6667 20.0007 36.6667C29.2048 36.6667 36.6673 29.2042 36.6673 20C36.6673 18.8825 36.5523 17.7917 36.3432 16.7358Z" fill="currentColor"/>
<path d="M5.25586 12.2425L10.7317 16.2583C12.2134 12.59 15.8017 9.99999 20.0009 9.99999C22.55 9.99999 24.8692 10.9617 26.635 12.5325L31.3492 7.81833C28.3725 5.04416 24.3909 3.33333 20.0009 3.33333C13.5992 3.33333 8.04753 6.94749 5.25586 12.2425Z" fill="currentColor"/>
<path d="M19.9996 36.6667C24.3046 36.6667 28.2163 35.0192 31.1738 32.34L26.0154 27.975C24.3421 29.2425 22.2621 30 19.9996 30C15.6646 30 11.9838 27.2358 10.5971 23.3783L5.16211 27.5658C7.92044 32.9633 13.5221 36.6667 19.9996 36.6667Z" fill="currentColor"/>
<path d="M36.3425 16.7358H35V16.6667H20V23.3333H29.4192C28.7592 25.1975 27.56 26.805 26.0133 27.9758L26.0158 27.9742L31.1742 32.3392C30.8092 32.6708 36.6667 28.3333 36.6667 20C36.6667 18.8825 36.5517 17.7917 36.3425 16.7358Z" fill="currentColor"/>
</svg>
